# xmcd
#
# Track frame offsets: 
#        150
#        21301
#        38234
#        53515
#        69074
#        86821
#        108753
#        128813
#        147241
#        163956
#        180748
#
# Disc length: 2686 seconds
#
# Revision: 1
# Processed by: cddbd v1.5.2PL0 Copyright (c) Steve Scherf et al.
# Submitted via: ExactAudioCopy v1.0b4
#
DISCID=8f0a7c0b
DTITLE=Eric Brace and Peter Cooper (With Lloyd Green and Mike Auldridge) /
DTITLE=Master Sessions
DYEAR=2010
DGENRE=Country
TTITLE0=Wait A Minute
TTITLE1=Suffer A Fool
TTITLE2=It Won't Be Me
TTITLE3=Missoula Tonight
TTITLE4=Big Steve
TTITLE5=Circus
TTITLE6=Behind Your Back
TTITLE7=I Flew Over Our House Last Night
TTITLE8=Nice Old Man
TTITLE9=Silent Night
TTITLE10=I Wish We Had Our Time Again
EXTD=
EXTT0=
EXTT1=
EXTT2=
EXTT3=
EXTT4=
EXTT5=
EXTT6=
EXTT7=
EXTT8=
EXTT9=
EXTT10=
PLAYORDER=
